Coordinates
version=1
nRows=11
nColumns=63
inDegrees=yes

Units are S.I. units (second, meters, Newtons, ...)
If the header above contains a line with 'inDegrees', this indicates whether rotational values are in degrees (yes) or radians (no).

endheader
time	pelvis_tilt	pelvis_list	pelvis_rotation	pelvis_tx	pelvis_ty	pelvis_tz	hip_flexion_r	hip_adduction_r	hip_rotation_r	knee_angle_r	knee_angle_r_beta	ankle_angle_r	subtalar_angle_r	mtp_angle_r	hip_flexion_l	hip_adduction_l	hip_rotation_l	knee_angle_l	knee_angle_l_beta	ankle_angle_l	subtalar_angle_l	mtp_angle_l	L5_S1_Flex_Ext	L5_S1_Lat_Bending	L5_S1_axial_rotation	L4_L5_Flex_Ext	L4_L5_Lat_Bending	L4_L5_axial_rotation	L3_L4_Flex_Ext	L3_L4_Lat_Bending	L3_L4_axial_rotation	L2_L3_Flex_Ext	L2_L3_Lat_Bending	L2_L3_axial_rotation	L1_L2_Flex_Ext	L1_L2_Lat_Bending	L1_L2_axial_rotation	L1_T12_Flex_Ext	L1_T12_Lat_Bending	L1_T12_axial_rotation	Abs_r3	Abs_r2	Abs_r1	Abs_t1	Abs_t2	neck_flexion	neck_bending	neck_rotation	arm_flex_r	arm_add_r	arm_rot_r	elbow_flex_r	pro_sup_r	wrist_flex_r	wrist_dev_r	arm_flex_l	arm_add_l	arm_rot_l	elbow_flex_l	pro_sup_l	wrist_flex_l	wrist_dev_l
4.480000	-5.154509	-1.994282	91.740378	0.214754	0.935313	0.668677	-3.818058	0.971009	1.656480	1.371161	0.023931	25.816633	-5.974650	0.000000	-0.435733	-1.008000	-6.284355	8.505592	0.148451	33.867689	15.806844	0.000000	-0.496685	-0.023136	-0.496871	-0.922393	-0.030771	-0.527925	-0.816003	-0.056254	-0.527925	-0.567661	-0.056254	-0.434762	-0.461222	-0.047180	-0.403707	-0.283806	-0.035838	-0.372653	-3.547770	-0.261722	-2.763445	0.000000	0.000000	20.214544	-2.364899	3.145634	6.812370	-12.087307	118.428069	10.089672	4.076818	-1.666100	-7.660856	11.343472	-11.464773	145.841723	7.594658	5.503492	-2.461730	-4.435717
4.500000	-5.047689	-1.774073	91.621110	0.214673	0.935584	0.668669	-3.965755	1.033008	1.368138	1.483771	0.025897	26.124443	-5.345848	0.000000	-0.712692	-1.097602	-6.456193	8.430530	0.147141	33.951207	15.841469	0.000000	-0.505891	-0.005774	-0.505495	-0.939491	-0.007679	-0.537089	-0.831129	-0.014038	-0.537089	-0.578183	-0.014038	-0.442308	-0.469771	-0.011773	-0.410715	-0.289066	-0.008943	-0.379121	-3.613531	-0.065312	-2.811412	0.000000	0.000000	19.458676	-2.509179	3.229741	6.989102	-12.241204	118.763171	10.306007	4.164686	-1.721775	-7.536438	11.145364	-11.352734	145.916889	7.350562	5.431657	-2.321345	-4.429048
4.520000	-4.924842	-1.547405	91.518559	0.214496	0.935923	0.668681	-4.100718	1.091666	0.846855	1.659836	0.028970	26.502985	-4.427523	0.000000	-1.005698	-1.199997	-6.607723	8.341623	0.145589	33.995332	15.878603	0.000000	-0.515958	0.015161	-0.525001	-0.958185	0.020164	-0.557814	-0.847667	0.036862	-0.557814	-0.589688	0.036862	-0.459376	-0.479119	0.030916	-0.426563	-0.294818	0.023484	-0.393751	-3.685436	0.171501	-2.919899	0.000000	0.000000	18.731416	-2.672564	3.361587	7.170170	-12.393926	119.294778	10.488692	4.217936	-1.833456	-7.465317	10.978575	-11.230879	145.984797	7.184448	5.397477	-2.218708	-4.377426
4.540000	-4.791409	-1.336341	91.439946	0.214219	0.936299	0.668772	-4.182114	1.137706	-0.092812	1.929445	0.033675	27.014803	-2.995503	0.000000	-1.258467	-1.310137	-6.721462	8.304310	0.144938	34.013965	15.867639	0.000000	-0.524824	0.039159	-0.553656	-0.974650	0.052081	-0.588259	-0.862233	0.095210	-0.588259	-0.599821	0.095210	-0.484449	-0.487351	0.079852	-0.449845	-0.299884	0.060657	-0.415242	-3.748764	0.442970	-3.079267	0.000000	0.000000	18.057503	-2.838674	3.557158	7.321403	-12.556258	119.608397	10.656202	4.311955	-1.971694	-7.433665	10.860478	-11.129956	145.677930	7.158559	5.598460	-2.144200	-4.244907
4.560000	-4.649341	-1.140499	91.383865	0.213874	0.936708	0.668890	-4.230626	1.182718	-1.074218	2.246723	0.039213	27.539836	-1.567566	0.000000	-1.474165	-1.431604	-6.822914	8.323866	0.145279	34.004711	15.850349	0.000000	-0.532342	0.065545	-0.589393	-0.988612	0.087175	-0.626230	-0.874584	0.159367	-0.626230	-0.608413	0.159367	-0.515719	-0.494332	0.133660	-0.478882	-0.304180	0.101529	-0.442045	-3.802463	0.741460	-3.278026	0.000000	0.000000	17.481844	-3.003889	3.804919	7.434051	-12.704744	119.940302	10.759382	4.344447	-2.138354	-7.474116	10.796994	-11.023414	145.460710	7.232462	5.711026	-2.086693	-4.057759
4.580000	-4.507910	-0.968523	91.380907	0.213452	0.937141	0.669041	-4.236958	1.220630	-2.287898	2.616678	0.045670	28.121195	0.079556	0.000000	-1.638947	-1.559025	-6.892055	8.400929	0.146624	33.966090	15.846217	0.000000	-0.537802	0.092543	-0.637196	-0.998752	0.123082	-0.677021	-0.883555	0.225009	-0.677021	-0.614654	0.225009	-0.557547	-0.499403	0.188714	-0.517722	-0.307300	0.143349	-0.477897	-3.841466	1.046866	-3.543894	0.000000	0.000000	17.031222	-3.135797	4.107966	7.500545	-12.823990	120.233989	10.778618	4.354325	-2.306553	-7.579973	10.775141	-10.954640	144.896664	7.446303	5.979092	-2.065831	-3.819096
4.600000	-4.381880	-0.821060	91.422162	0.212990	0.937582	0.669193	-4.212037	1.241375	-3.526591	3.019085	0.052693	28.685376	1.667160	0.000000	-1.762715	-1.675013	-6.892202	8.512476	0.148571	33.891631	15.805147	0.000000	-0.540780	0.117592	-0.691438	-1.004283	0.156398	-0.734653	-0.888448	0.285914	-0.734653	-0.618058	0.285914	-0.605008	-0.502169	0.239795	-0.561794	-0.309002	0.182151	-0.518579	-3.862739	1.330230	-3.845572	0.000000	0.000000	16.720703	-3.230853	4.419485	7.511248	-12.904704	120.452399	10.717553	4.319779	-2.457570	-7.741147	10.782085	-10.906702	144.310112	7.732647	6.182642	-2.054998	-3.567100
4.620000	-4.281878	-0.689325	91.521784	0.212506	0.938023	0.669332	-4.178405	1.247895	-4.682749	3.430067	0.059866	29.190237	3.030981	0.000000	-1.851290	-1.773336	-6.845469	8.659335	0.151134	33.802158	15.761363	0.000000	-0.542452	0.138641	-0.753644	-1.007388	0.184392	-0.800746	-0.891194	0.337092	-0.800746	-0.619968	0.337092	-0.659438	-0.503721	0.282717	-0.612335	-0.309957	0.214755	-0.565233	-3.874681	1.568334	-4.191539	0.000000	0.000000	16.538282	-3.283172	4.724916	7.475654	-12.939336	120.604522	10.588121	4.252342	-2.574839	-7.931562	10.781870	-10.888827	143.636357	8.037142	6.346854	-2.054463	-3.336072
4.640000	-4.212537	-0.570937	91.682071	0.211994	0.938438	0.669450	-4.140272	1.236278	-5.832875	3.850548	0.067205	29.642018	4.270423	0.000000	-1.909724	-1.847943	-6.739771	8.830949	0.154129	33.709552	15.708443	0.000000	-0.542374	0.154678	-0.821433	-1.007243	0.205722	-0.872773	-0.891067	0.376084	-0.872773	-0.619879	0.376084	-0.718754	-0.503649	0.315419	-0.667415	-0.309913	0.239596	-0.616075	-3.874125	1.749747	-4.568566	0.000000	0.000000	16.459184	-3.296558	4.985515	7.409094	-12.942423	120.676475	10.436539	4.169007	-2.663959	-8.129232	10.744232	-10.891744	142.972760	8.294343	6.411541	-2.050732	-3.180185
4.660000	-4.176257	-0.455339	91.905298	0.211455	0.938817	0.669526	-4.127629	1.217992	-6.844996	4.238009	0.073967	29.986949	5.211994	0.000000	-1.954049	-1.897138	-6.586911	9.016972	0.157376	33.621373	15.674479	0.000000	-0.541285	0.164749	-0.893768	-1.005221	0.219117	-0.949628	-0.889278	0.400572	-0.949628	-0.618635	0.400572	-0.782047	-0.502638	0.335957	-0.726186	-0.309290	0.255197	-0.670326	-3.866347	1.863678	-4.970868	0.000000	0.000000	16.447546	-3.271941	5.160438	7.333875	-12.918008	120.767089	10.292043	4.072230	-2.733472	-8.314667	10.639858	-10.910587	142.387517	8.440357	6.383413	-2.044917	-3.126411
4.680000	-4.163442	-0.344352	92.175093	0.210878	0.939133	0.669577	-4.131934	1.191642	-8.005026	4.605365	0.080379	30.304500	6.292629	0.000000	-1.985197	-1.925647	-6.372526	9.209121	0.160729	33.555370	15.635438	0.000000	-0.539130	0.170172	-0.965884	-1.001219	0.226329	-1.026252	-0.885737	0.413757	-1.026252	-0.616172	0.413757	-0.845149	-0.500636	0.347015	-0.784781	-0.308059	0.263597	-0.724413	-3.850953	1.925024	-5.371958	0.000000	0.000000	16.482402	-3.233310	5.220760	7.261378	-12.897279	120.750724	10.213690	4.072960	-2.832442	-8.480855	10.459838	-10.941160	141.684491	8.479455	6.426536	-2.101998	-3.195263
